<svg width="42" height="42" viewBox="0 0 42 42" fill="none" xmlns="http://www.w3.org/2000/svg">
<path d="M4.35938 5.65625C2.72657 6.00781 1.35157 7.42969 1.07813 9.04688C1.01563 9.40625 1.00001 13.0156 1.01563 21.3125L1.03907 33.0703L1.24219 33.5938C1.81251 35.0469 2.95313 36.0469 4.39844 36.3516C5.21876 36.5234 36.7813 36.5234 37.6016 36.3516C39.0703 36.0391 40.2813 34.9609 40.7813 33.5156L40.9609 32.9922V21V9.00781L40.7813 8.48438C40.2813 7.03906 39.0703 5.96094 37.6016 5.64844C36.7969 5.47656 5.14063 5.48438 4.35938 5.65625ZM13.8516 13.5547C17.75 16.9844 20.9688 19.7891 21 19.7891C21.0391 19.7891 24.2578 16.9844 28.1641 13.5469L35.2578 7.3125L36.2344 7.35156C37.4063 7.40625 37.8125 7.52344 38.3359 8C38.7422 8.36719 39.1563 9.07812 39.1094 9.34375C39.0859 9.49219 21.1406 25.5312 21 25.5312C20.875 25.5312 2.91407 9.49219 2.89063 9.35156C2.85157 9.125 3.14844 8.53906 3.50001 8.15625C4.07032 7.53906 4.64063 7.35156 6.00782 7.33594L6.76563 7.32812L13.8516 13.5547ZM32.4063 7.35938C32.4063 7.41406 21.0625 17.3672 21 17.3672C20.9375 17.3672 9.59376 7.41406 9.59376 7.35938C9.59376 7.34375 14.7266 7.32812 21 7.32812C27.2734 7.32812 32.4063 7.34375 32.4063 7.35938ZM5.24219 14L7.32813 15.8594V25.2734V34.6953L6.06251 34.6484C5.14844 34.625 4.68751 34.5703 4.42188 34.4766C3.91407 34.2969 3.32032 33.7422 3.05469 33.2031L2.83594 32.7578L2.81251 22.2969L2.79688 11.8281L2.96876 11.9844C3.07032 12.0781 4.08594 12.9844 5.24219 14ZM39.1875 24.3594L39.1641 32.7578L38.9453 33.2031C38.6797 33.7422 38.0859 34.2969 37.5781 34.4766C37.3125 34.5703 36.8516 34.625 35.9453 34.6484L34.6719 34.6953V25.2734V15.8594L36.9219 13.8672L39.1641 11.8672L39.1875 13.9141C39.1953 15.0391 39.1953 19.7422 39.1875 24.3594ZM15.2344 22.8984C18.3594 25.6797 20.9531 27.9531 21 27.9531C21.0625 27.9531 30.2578 19.8281 32.625 17.6953L32.7969 17.5391V26.1016V34.6719H21H9.20313V26.1016V17.5391L9.38282 17.6953C9.47657 17.7812 12.1094 20.125 15.2344 22.8984Z" fill="#171717"/>
</svg>
