<svg width="196" height="48" viewBox="0 0 196 48" fill="none" xmlns="http://www.w3.org/2000/svg">
<path d="M5.09659 42H0.5625L6.4517 24.5455H12.0682L17.9574 42H13.4233L9.32386 28.9432H9.1875L5.09659 42ZM4.49148 35.1307H13.9688V38.3352H4.49148V35.1307ZM31.3563 24.5455H35.5665V35.804C35.5665 37.1051 35.2569 38.2386 34.6376 39.2045C34.0182 40.1648 33.1546 40.9091 32.0466 41.4375C30.9387 41.9602 29.6518 42.2216 28.1859 42.2216C26.7029 42.2216 25.4074 41.9602 24.2995 41.4375C23.1915 40.9091 22.3307 40.1648 21.7171 39.2045C21.1035 38.2386 20.7966 37.1051 20.7966 35.804V24.5455H25.0154V35.4375C25.0154 36.0398 25.1461 36.5767 25.4074 37.0483C25.6745 37.5199 26.0466 37.8892 26.5239 38.1562C27.0012 38.4233 27.5552 38.5568 28.1859 38.5568C28.8165 38.5568 29.3677 38.4233 29.8393 38.1562C30.3165 37.8892 30.6887 37.5199 30.9557 37.0483C31.2228 36.5767 31.3563 36.0398 31.3563 35.4375V24.5455ZM38.5997 27.9716V24.5455H53.3525V27.9716H48.0599V42H43.9008V27.9716H38.5997ZM72.0505 33.2727C72.0505 35.1932 71.6811 36.821 70.9425 38.1562C70.2039 39.4915 69.2039 40.5057 67.9425 41.1989C66.6868 41.892 65.2777 42.2386 63.7152 42.2386C62.147 42.2386 60.7351 41.8892 59.4794 41.1903C58.2238 40.4915 57.2266 39.4773 56.488 38.1477C55.755 36.8125 55.3885 35.1875 55.3885 33.2727C55.3885 31.3523 55.755 29.7244 56.488 28.3892C57.2266 27.054 58.2238 26.0398 59.4794 25.3466C60.7351 24.6534 62.147 24.3068 63.7152 24.3068C65.2777 24.3068 66.6868 24.6534 67.9425 25.3466C69.2039 26.0398 70.2039 27.054 70.9425 28.3892C71.6811 29.7244 72.0505 31.3523 72.0505 33.2727ZM67.738 33.2727C67.738 32.1364 67.576 31.1761 67.2522 30.392C66.934 29.608 66.4738 29.0142 65.8715 28.6108C65.2749 28.2074 64.5561 28.0057 63.7152 28.0057C62.88 28.0057 62.1613 28.2074 61.559 28.6108C60.9567 29.0142 60.4936 29.608 60.1698 30.392C59.8516 31.1761 59.6925 32.1364 59.6925 33.2727C59.6925 34.4091 59.8516 35.3693 60.1698 36.1534C60.4936 36.9375 60.9567 37.5312 61.559 37.9347C62.1613 38.3381 62.88 38.5398 63.7152 38.5398C64.5561 38.5398 65.2749 38.3381 65.8715 37.9347C66.4738 37.5312 66.934 36.9375 67.2522 36.1534C67.576 35.3693 67.738 34.4091 67.738 33.2727ZM78.791 42L73.7114 24.5455H78.3734L81.0069 35.983H81.1518L84.1603 24.5455H87.9614L90.97 36.0085H91.1149L93.7569 24.5455H98.4103L93.3393 42H89.2739L86.1291 31.4148H85.9927L82.8478 42H78.791ZM105.332 24.5455V42H101.113V24.5455H105.332ZM108.881 42V39.5966L117.361 27.9716H108.889V24.5455H122.696V26.9489L114.216 38.5739H122.688V42H108.881ZM130.012 42H125.478L131.367 24.5455H136.983L142.873 42H138.339L134.239 28.9432H134.103L130.012 42ZM129.407 35.1307H138.884V38.3352H129.407V35.1307ZM145.712 42V24.5455H152.922C154.229 24.5455 155.357 24.7812 156.306 25.2528C157.26 25.7187 157.996 26.3892 158.513 27.2642C159.03 28.1335 159.289 29.1648 159.289 30.358C159.289 31.5682 159.024 32.5966 158.496 33.4432C157.968 34.2841 157.218 34.9261 156.246 35.3693C155.274 35.8068 154.124 36.0256 152.794 36.0256H148.235V32.7017H152.01C152.647 32.7017 153.178 32.6193 153.604 32.4545C154.036 32.2841 154.363 32.0284 154.584 31.6875C154.806 31.3409 154.916 30.8977 154.916 30.358C154.916 29.8182 154.806 29.3722 154.584 29.0199C154.363 28.6619 154.036 28.3949 153.604 28.2188C153.172 28.0369 152.641 27.946 152.01 27.946H149.931V42H145.712ZM155.539 34.0227L159.885 42H155.283L151.022 34.0227H155.539ZM169.014 42H162.563V24.5455H169.006C170.784 24.5455 172.315 24.8949 173.6 25.5938C174.889 26.2869 175.884 27.2869 176.582 28.5938C177.281 29.8949 177.631 31.4517 177.631 33.2642C177.631 35.0824 177.281 36.6449 176.582 37.9517C175.889 39.2585 174.898 40.2614 173.608 40.9602C172.318 41.6534 170.787 42 169.014 42ZM166.781 38.4034H168.852C169.83 38.4034 170.656 38.2386 171.332 37.9091C172.014 37.5739 172.528 37.0312 172.875 36.2812C173.227 35.5256 173.403 34.5199 173.403 33.2642C173.403 32.0085 173.227 31.0085 172.875 30.2642C172.523 29.5142 172.003 28.9744 171.315 28.6449C170.634 28.3097 169.793 28.142 168.793 28.142H166.781V38.4034ZM190.489 29.7784C190.432 29.1534 190.179 28.6676 189.73 28.321C189.287 27.9688 188.653 27.7926 187.829 27.7926C187.284 27.7926 186.829 27.8636 186.466 28.0057C186.102 28.1477 185.829 28.3438 185.648 28.5938C185.466 28.8381 185.372 29.1193 185.366 29.4375C185.355 29.6989 185.406 29.929 185.52 30.1278C185.639 30.3267 185.81 30.5028 186.031 30.6562C186.258 30.804 186.531 30.9347 186.849 31.0483C187.167 31.1619 187.525 31.2614 187.923 31.3466L189.423 31.6875C190.287 31.875 191.048 32.125 191.707 32.4375C192.372 32.75 192.929 33.1222 193.378 33.554C193.832 33.9858 194.176 34.483 194.409 35.0455C194.642 35.608 194.761 36.2386 194.767 36.9375C194.761 38.0398 194.483 38.9858 193.932 39.7756C193.381 40.5653 192.588 41.1705 191.554 41.5909C190.525 42.0114 189.284 42.2216 187.829 42.2216C186.369 42.2216 185.096 42.0028 184.011 41.5653C182.926 41.1278 182.082 40.4631 181.48 39.571C180.878 38.679 180.568 37.5511 180.551 36.1875H184.591C184.625 36.75 184.775 37.2188 185.042 37.5938C185.31 37.9688 185.676 38.2528 186.142 38.446C186.614 38.6392 187.159 38.7358 187.778 38.7358C188.346 38.7358 188.829 38.6591 189.227 38.5057C189.631 38.3523 189.94 38.1392 190.156 37.8665C190.372 37.5937 190.483 37.2812 190.489 36.929C190.483 36.5994 190.381 36.3182 190.182 36.0852C189.983 35.8466 189.676 35.642 189.261 35.4716C188.852 35.2955 188.329 35.1335 187.693 34.9858L185.869 34.5597C184.358 34.2131 183.167 33.6534 182.298 32.8807C181.429 32.1023 180.997 31.0511 181.003 29.7273C180.997 28.6477 181.287 27.7017 181.872 26.8892C182.457 26.0767 183.267 25.4432 184.301 24.9886C185.335 24.5341 186.514 24.3068 187.838 24.3068C189.19 24.3068 190.364 24.5369 191.358 24.9972C192.358 25.4517 193.133 26.0909 193.685 26.9148C194.236 27.7386 194.517 28.6932 194.528 29.7784H190.489Z" fill="#030712"/>
<g clip-path="url(#clip0_1_22)">
<mask id="mask0_1_22" style="mask-type:luminance" maskUnits="userSpaceOnUse" x="87" y="0" width="32" height="48">
<path d="M119 0H87V48H119V0Z" fill="white"/>
</mask>
<g mask="url(#mask0_1_22)">
<mask id="mask1_1_22" style="mask-type:luminance" maskUnits="userSpaceOnUse" x="87" y="0" width="32" height="48">
<path d="M119 0H87V48H119V0Z" fill="white"/>
</mask>
<g mask="url(#mask1_1_22)">
<mask id="mask2_1_22" style="mask-type:luminance" maskUnits="userSpaceOnUse" x="78" y="2" width="49" height="50">
<path d="M102.936 2.7961L78.8841 26.9648L102.936 51.1335L126.988 26.9648L102.936 2.7961Z" fill="white"/>
</mask>
<g mask="url(#mask2_1_22)">
<path d="M105.98 10.5849L105.989 15.9284L102.931 18.0574L99.8778 15.9237L99.8684 10.5801C98.6752 10.5801 97.5525 11.1607 96.9559 11.8263C96.3546 12.4966 95.3587 14.2149 95.4245 16.3863C95.4809 18.4822 96.411 21.5599 99.5725 22.8391C99.953 22.9949 100.432 23.2215 100.432 23.9767C100.427 24.7368 99.859 43.6989 99.859 43.6989C99.7322 45.4029 101.25 46.7953 102.936 46.8002C104.632 46.786 106.126 45.3887 106.004 43.6893C106.004 43.6893 105.412 24.8547 105.421 23.9674C105.43 23.1743 105.919 22.9477 106.281 22.8297C108.817 22.0178 110.447 18.8692 110.447 16.3863C110.447 13.9033 109.48 12.4778 108.907 11.8263C108.338 11.1796 107.324 10.5849 105.98 10.5849ZM103.993 43.5761C103.988 44.166 103.509 44.6477 102.927 44.6477C102.339 44.6428 101.86 44.1614 101.86 43.5761C101.865 42.9861 102.344 42.5045 102.927 42.5045C103.514 42.5094 103.993 42.9908 103.993 43.5761Z" fill="#EF4444"/>
</g>
<path d="M113.667 15.8447H119" stroke="#EF4444" stroke-width="2"/>
<path d="M87 15.8447H92.3333" stroke="#EF4444" stroke-width="2"/>
<path d="M103.232 5.35922V0" stroke="#EF4444" stroke-width="2"/>
<path d="M110.671 8.27243L114.443 4.48289" stroke="#EF4444" stroke-width="2"/>
<path d="M92.0821 4.54428L95.8534 8.33385" stroke="#EF4444" stroke-width="2"/>
</g>
</g>
</g>
<defs>
<clipPath id="clip0_1_22">
<rect width="32" height="48" fill="white" transform="translate(87)"/>
</clipPath>
</defs>
</svg>
