<svg width="118" height="118" viewBox="0 0 118 118" fill="none" xmlns="http://www.w3.org/2000/svg">
<path d="M21.1862 18.2292C20.5925 18.86 20.444 19.7135 20.3698 22.8676L20.2214 26.7267H16.9189C13.9132 26.7267 13.505 26.8009 12.6887 27.6172C12.2063 28.0996 11.6868 29.1015 11.5755 29.8065L11.3157 31.1053L6.86289 31.2537C1.18553 31.4021 1 31.5506 1 36.3745C1 41.1984 1.18553 41.3468 6.86289 41.4952C11.2044 41.6437 11.3157 41.6437 11.5013 42.4971C11.6497 43.3506 11.5384 43.3877 9.38616 43.499L7.12264 43.6103L7.01132 46.4305L6.9 49.2877L10.2767 52.4047L13.6164 55.5588L10.0912 66.0229L6.52893 76.4871L6.64025 81.3852L6.75157 86.2833L8.90377 86.3946L11.0189 86.5059L11.056 90.2908C11.0931 92.3688 11.056 95.5229 11.0189 97.304C10.9447 101.905 11.0931 102.091 14.8409 101.98L17.8836 101.868L17.995 94.1871L18.0692 86.5059L20.0359 86.3946L21.9654 86.2833L27.9767 75.1512C31.9101 67.8783 33.9881 63.6852 33.9138 63.0915C33.8396 62.1638 33.7654 62.1638 30.2403 62.0525C27.6799 61.9782 26.6038 61.8298 26.6409 61.4959C26.6409 61.2361 27.012 60.0487 27.4943 58.8242L28.3478 56.5977L32.8377 56.4864L37.3648 56.3751L37.439 65.355L37.5503 74.3349L40.0736 76.5984L42.634 78.8619L43.5245 77.8229L44.4151 76.7839L42.3742 74.8915L40.3333 73.0361V67.7669V62.4977L42.5226 62.5349C46.1962 62.5349 48.1258 60.4198 48.1258 56.3009V54.1858H52.9497H57.7736V57.2657V60.3084L56.0296 61.2361C53.6918 62.4606 50.9459 65.2808 49.7214 67.6556C48.0516 70.9581 47.7547 72.7764 47.7547 80.0493C47.7547 86.3946 47.7176 86.8028 47.0126 87.0254C45.9365 87.3594 44.4893 89.2889 44.1925 90.7361C43.8956 92.3317 44.4893 93.816 45.9365 95.226L47.0497 96.3021L63.5623 96.4135C81.6704 96.5248 81.3736 96.5619 83.0063 94.2613C84.5277 92.1462 83.7484 88.5468 81.5591 87.3965L80.483 86.877L80.3346 79.5298C80.1491 71.4405 79.7409 69.5852 77.5145 66.3198C76.1044 64.316 73.3585 61.7927 71.6887 60.9764L70.3899 60.3455V57.3028V54.26L72.6164 54.1116C74.5459 53.9632 75.0654 53.7776 76.0302 52.7757C77.0321 51.7738 77.2176 51.2915 77.366 49.2877C77.4403 47.9889 77.7 46.7273 77.8855 46.4676C78.1082 46.2078 79.1472 46.0223 80.483 46.0223C82.3013 46.0223 82.8208 45.8738 83.5629 45.0946C84.0824 44.6122 84.4906 44.0556 84.4906 43.833C84.4906 43.6474 86.5314 43.4248 89.0547 43.3506L93.5818 43.2021L98.2943 40.2707C102.97 37.3764 103.564 36.8198 103.23 35.8921C103.118 35.6694 100.929 34.1481 98.3686 32.5525L93.6931 29.6952H89.2774C84.9359 29.6952 84.8245 29.6581 84.4906 28.8047C83.6742 26.6525 84.7132 26.7267 57.5138 26.7267H32.5409V22.8304C32.5409 17.4499 32.5409 17.4499 26.4925 17.4499C22.2994 17.4499 21.817 17.5242 21.1862 18.2292ZM29.6465 23.9065C29.8321 29.955 26.6409 29.287 56.4377 29.3984L81.7076 29.5097V36.3745V43.2393L79.5182 43.3506C75.9189 43.5361 74.8428 44.6493 74.5088 48.6198L74.2862 51.0317L60.1113 51.2172C52.3189 51.3286 45.8252 51.5512 45.6396 51.6996C45.4912 51.8852 45.2686 53.5179 45.2314 55.3361C45.083 58.3418 45.0088 58.7128 44.1553 59.3808C42.9679 60.3084 42.5226 60.3084 41.2981 59.3437L40.3333 58.6015V51.6254C40.3333 46.6531 40.1849 44.5009 39.8881 44.0556C39.4428 43.499 38.144 43.4248 26.9748 43.3506L14.544 43.2393V36.3745V29.5097L18.366 29.3242C23.2642 29.1015 23.2642 29.0644 23.2642 23.8694V20.0474H26.3811H29.4981L29.6465 23.9065ZM91.5409 36.3745V40.4562H88.2013H84.8616V36.3745V32.2927H88.2013H91.5409V36.3745ZM98.9623 36.3745C98.9623 36.4858 97.9604 37.1908 96.7359 37.9701L94.5094 39.343V36.3745V33.443L96.7359 34.816C97.9604 35.5581 98.9623 36.2632 98.9623 36.3745ZM11.3899 36.3745V38.6009H7.67925H3.96855V36.3745V34.1481H7.67925H11.3899V36.3745ZM29.2013 46.2078C29.2013 46.282 27.7541 50.2154 26.0101 54.9279C23.3755 61.9411 22.8931 63.5738 23.2642 64.0191C23.5981 64.4273 24.5629 64.5757 27.0491 64.5757C28.8673 64.5757 30.3145 64.7242 30.2403 64.8726C30.2031 65.0581 27.8654 69.3996 25.1195 74.5204L20.1101 83.8713H14.6553H9.16352V80.5688C9.16352 78.7877 9.34906 76.7839 9.5717 76.116C9.97987 74.9657 10.017 74.9657 12.5031 74.9657C14.3214 74.9657 15.212 74.8172 15.6201 74.372C17.0302 72.999 15.9912 71.9971 13.134 71.9971C11.056 71.9971 10.9818 71.96 11.2415 71.1437C12.0208 68.5833 11.9465 68.6575 14.5069 68.6575C16.2138 68.6575 16.9931 68.5091 17.3642 68.0638C18.2176 67.0619 17.327 66.2455 15.1377 66.1342C14.0987 66.06 13.2453 65.9116 13.2453 65.8003C13.2453 65.6889 13.4308 64.9468 13.6906 64.1676L14.0987 62.7204H16.2138C18.366 62.7204 19.1824 62.3122 19.1824 61.1619C19.1824 60.3084 18.0692 59.7518 16.4365 59.7518H15.1377L15.6201 58.3418C16.0654 57.043 16.2138 56.9688 17.9208 56.7833C20.1472 56.5235 20.6667 56.2267 20.6667 55.1135C20.6667 54.0745 20.073 53.8147 17.5868 53.8147C15.6943 53.8147 15.6572 53.7776 12.6145 50.772C10.5736 48.7311 9.53459 47.4323 9.53459 46.8757V46.0223H19.3679C24.7855 46.0223 29.2013 46.0965 29.2013 46.2078ZM37.3648 49.9185V53.8147H33.4686C31.3164 53.8147 29.5723 53.7034 29.5723 53.555C29.5723 53.4066 30.2031 51.6625 30.9453 49.6588L32.3553 46.0223H34.8415H37.3648V49.9185ZM67.4585 57.2286C67.5327 60.6424 67.6069 61.9411 67.8296 62.1267C67.9038 62.2009 68.8686 62.7204 69.9447 63.2399C72.5792 64.5757 74.8428 66.8764 76.1786 69.6223C77.2176 71.7745 77.2547 71.9229 77.366 79.1216L77.5145 86.4688H64.0818H50.6862L50.7975 78.9361L50.9088 71.4405L52.1704 69.1028C53.6918 66.3198 55.473 64.6128 58.5157 63.0915L60.7421 61.9782V58.082V54.1858H64.0818H67.4214L67.4585 57.2286ZM15.4717 92.9625C15.4717 99.1965 15.4346 99.4562 14.7296 99.4562C14.0245 99.4562 13.9874 99.1965 13.9874 92.9625C13.9874 86.7286 14.0245 86.4688 14.7296 86.4688C15.4346 86.4688 15.4717 86.7286 15.4717 92.9625ZM80.6314 90.365C81.4107 91.5525 81.0767 92.8883 79.8522 93.4449C79.1472 93.7789 74.5088 93.8902 63.7107 93.8902C48.9792 93.8902 48.4598 93.8531 47.7547 93.1481C46.8642 92.2575 46.7899 91.033 47.6434 90.1053C48.2 89.4745 49.2019 89.4374 64.1189 89.4374H80.0377L80.6314 90.365Z" fill="#EF4444"/>
<path d="M21.7056 35.2984C20.8151 35.7807 20.8522 37.0053 21.7427 37.4877C22.8559 38.0443 74.5459 38.0072 75.1396 37.4135C75.8075 36.7455 75.6591 35.7065 74.8798 35.2612C73.878 34.7418 22.5962 34.7789 21.7056 35.2984Z" fill="#EF4444"/>
<path d="M45.5654 44.0928C45.3057 44.6123 45.3057 44.9833 45.6396 45.4286C46.0478 45.9852 47.3095 46.0223 58.5157 45.9481L70.9466 45.8368V44.7236V43.6104L58.4415 43.499C46.5302 43.4248 45.8994 43.4619 45.5654 44.0928Z" fill="#EF4444"/>
<path d="M66.0113 66.394C65.3062 66.8392 65.6031 68.3235 66.4937 68.8059C69.2396 70.3273 70.7609 72.3311 70.7609 74.409C70.7609 74.9285 71.0949 75.6707 71.5031 76.0789C72.1339 76.7097 72.3937 76.7468 73.0245 76.4128C73.7295 76.0418 73.8037 75.782 73.6182 74.2235C73.2471 71.0694 71.2433 68.2122 68.4603 66.765C66.9018 65.9858 66.7163 65.9487 66.0113 66.394Z" fill="#EF4444"/>
<path d="M108.165 28.1367C106.384 29.9549 104.899 31.5876 104.899 31.8103C104.899 32.07 105.159 32.5153 105.493 32.8122C105.79 33.1461 106.235 33.4059 106.495 33.4059C106.718 33.4059 108.35 31.9216 110.169 30.1405C111.95 28.3222 113.434 26.6895 113.434 26.4669C113.434 26.2071 113.174 25.7619 112.84 25.465C112.543 25.131 112.098 24.8713 111.838 24.8713C111.616 24.8713 109.983 26.3556 108.165 28.1367Z" fill="#EF4444"/>
<path d="M107.348 35.4839C107.015 35.7808 106.755 36.189 106.755 36.3745C106.755 36.56 107.015 36.9682 107.348 37.2651C107.794 37.7474 108.796 37.8588 111.987 37.8588C116.328 37.8588 117.516 37.5248 117.516 36.3745C117.516 35.2242 116.328 34.8902 111.987 34.8902C108.796 34.8902 107.794 35.0015 107.348 35.4839Z" fill="#EF4444"/>
<path d="M105.493 39.9367C105.159 40.2335 104.899 40.6788 104.899 40.9386C104.899 41.4581 111.319 47.8776 111.838 47.8776C112.395 47.8776 113.434 46.8386 113.434 46.282C113.434 45.7625 107.015 39.343 106.495 39.343C106.235 39.343 105.79 39.6027 105.493 39.9367Z" fill="#EF4444"/>
</svg>
