<svg width="118" height="118" viewBox="0 0 118 118" fill="none" xmlns="http://www.w3.org/2000/svg">
<path d="M28.3016 97.0735C26.5954 97.0721 24.9425 96.4793 23.6244 95.3959C22.3063 94.3125 21.4047 92.8056 21.073 91.132C20.7414 89.4584 21.0003 87.7215 21.8056 86.2174C22.611 84.7132 23.9129 83.5349 25.4896 82.883C27.0664 82.2311 28.8204 82.1461 30.4527 82.6424C32.0851 83.1388 33.4949 84.1857 34.442 85.6049C35.389 87.0241 35.8146 88.7278 35.6464 90.4257C35.4782 92.1235 34.7265 93.7105 33.5194 94.9163C32.834 95.601 32.0204 96.1439 31.1251 96.514C30.2298 96.8841 29.2703 97.0743 28.3016 97.0735ZM28.3016 86.011C27.4482 86.0074 26.6201 86.2998 25.9583 86.8385C25.2965 87.3772 24.8419 88.1287 24.6722 88.9649C24.5025 89.8012 24.628 90.6704 25.0274 91.4245C25.4268 92.1786 26.0754 92.7708 26.8626 93.1002C27.6498 93.4295 28.5268 93.4757 29.3443 93.2308C30.1617 92.986 30.8689 92.4651 31.3453 91.7572C31.8217 91.0493 32.0378 90.198 31.9569 89.3485C31.8759 88.4991 31.5028 87.704 30.9012 87.0988C30.2129 86.4063 29.278 86.0151 28.3016 86.011Z" fill="#EF4444"/>
<path d="M28.3016 104.448C26.1467 104.462 24.0149 104.004 22.0563 103.105C20.0976 102.206 18.3597 100.89 16.9647 99.247C15.5697 97.6045 14.5516 95.6763 13.9819 93.598C13.4122 91.5197 13.3048 89.3419 13.6673 87.2176C14.0298 85.0934 14.8533 83.0744 16.0799 81.3026C17.3066 79.5309 18.9066 78.0494 20.7673 76.9625C22.628 75.8755 24.7043 75.2095 26.8501 75.0112C28.9959 74.813 31.1591 75.0873 33.1875 75.8149C33.4167 75.8955 33.6277 76.0206 33.8084 76.183C33.9891 76.3453 34.1359 76.5418 34.2404 76.7611C34.345 76.9804 34.4051 77.2183 34.4174 77.4609C34.4297 77.7035 34.394 77.9462 34.3122 78.1749C34.1458 78.6345 33.8037 79.0091 33.3612 79.2166C32.9187 79.424 32.4119 79.4472 31.9522 79.2812C29.9845 78.5631 27.8517 78.4264 25.8084 78.8874C23.7651 79.3484 21.8976 80.3875 20.4288 81.8809C18.3571 83.9551 17.1935 86.7668 17.1935 89.6984C17.1935 92.63 18.3571 95.4417 20.4288 97.5159C22.1986 99.3163 24.5311 100.457 27.0389 100.749C29.5466 101.041 32.0788 100.466 34.2149 99.1206C36.351 97.7747 37.9625 95.7388 38.7817 93.3507C39.601 90.9626 39.5788 88.3661 38.7188 85.9924C38.6062 85.7575 38.5447 85.5013 38.5384 85.2409C38.532 84.9804 38.581 84.7215 38.6819 84.4814C38.7829 84.2412 38.9336 84.0251 39.1242 83.8475C39.3147 83.6698 39.5408 83.5345 39.7874 83.4505C40.034 83.3666 40.2957 83.3358 40.5551 83.3604C40.8144 83.3849 41.0657 83.4641 41.2922 83.5928C41.5188 83.7214 41.7155 83.8967 41.8694 84.1069C42.0232 84.3171 42.1308 84.5576 42.185 84.8124C42.9759 87.0367 43.2213 89.4184 42.9006 91.7572C42.5799 94.096 41.7026 96.3237 40.3423 98.2531C38.9819 100.183 37.1784 101.757 35.0832 102.845C32.988 103.933 30.6623 104.501 28.3016 104.504V104.448ZM66.0984 35.4921C65.6121 35.4852 65.1482 35.2864 64.8078 34.939C64.4644 34.5936 64.2717 34.1263 64.2717 33.6392C64.2717 33.1521 64.4644 32.6848 64.8078 32.3393L70.0625 27.1215C70.2278 26.9285 70.4312 26.7717 70.6599 26.6611C70.8887 26.5504 71.1378 26.4882 71.3918 26.4784C71.6457 26.4686 71.8989 26.5114 72.1355 26.6041C72.3721 26.6968 72.587 26.8374 72.7667 27.0171C72.9463 27.1967 73.0869 27.4116 73.1796 27.6482C73.2723 27.8848 73.3151 28.138 73.3053 28.392C73.2955 28.6459 73.2333 28.895 73.1226 29.1238C73.012 29.3525 72.8552 29.5559 72.6622 29.7212L67.4075 35.0312C67.0478 35.3495 66.5782 35.5148 66.0984 35.4921ZM45.2456 56.3449C45.003 56.3463 44.7624 56.2998 44.5378 56.2081C44.3132 56.1163 44.1089 55.9811 43.9366 55.8103C43.7638 55.6389 43.6266 55.4349 43.533 55.2103C43.4394 54.9856 43.3912 54.7446 43.3912 54.5012C43.3912 54.2578 43.4394 54.0168 43.533 53.7921C43.6266 53.5675 43.7638 53.3635 43.9366 53.1921L49.1544 47.9374C49.5016 47.5903 49.9725 47.3952 50.4634 47.3952C50.9544 47.3952 51.4253 47.5903 51.7725 47.9374C52.1197 48.2846 52.3147 48.7555 52.3147 49.2465C52.3147 49.7375 52.1197 50.2084 51.7725 50.5556L46.5547 55.7734C46.3855 55.9509 46.1825 56.0929 45.9578 56.1911C45.733 56.2892 45.4909 56.3415 45.2456 56.3449ZM40.0278 71.9062C39.5441 71.9042 39.0806 71.7121 38.7372 71.3715L33.5194 66.1537C33.172 65.8133 32.9732 65.3494 32.9663 64.8631C32.9673 64.6191 33.0167 64.3778 33.1116 64.1531C33.2066 63.9284 33.3452 63.7248 33.5194 63.554L38.7188 58.4099C39.0642 58.0665 39.5315 57.8738 40.0186 57.8738C40.5057 57.8738 40.973 58.0665 41.3184 58.4099C41.4913 58.5813 41.6284 58.7853 41.722 59.0099C41.8156 59.2346 41.8638 59.4756 41.8638 59.719C41.8638 59.9624 41.8156 60.2034 41.722 60.4281C41.6284 60.6528 41.4913 60.8567 41.3184 61.0281L37.4281 64.9368L41.3369 68.8456C41.6803 69.191 41.873 69.6583 41.873 70.1454C41.873 70.6325 41.6803 71.0998 41.3369 71.4453C40.9772 71.7635 40.5076 71.9289 40.0278 71.9062ZM55.6813 45.9093C55.4386 45.9107 55.1981 45.8642 54.9734 45.7725C54.7488 45.6807 54.5445 45.5455 54.3722 45.3746C54.0288 45.0292 53.836 44.5619 53.836 44.0748C53.836 43.5877 54.0288 43.1204 54.3722 42.7749L59.59 37.5571C59.9427 37.2551 60.3964 37.0972 60.8605 37.1152C61.3245 37.1331 61.7647 37.3255 62.093 37.6538C62.4214 37.9822 62.6137 38.4224 62.6317 38.8864C62.6496 39.3504 62.4918 39.8041 62.1897 40.1568L56.9903 45.3746C56.818 45.5455 56.6137 45.6807 56.3891 45.7725C56.1644 45.8642 55.9239 45.9107 55.6813 45.9093ZM84.3516 53.7453C83.8652 53.7383 83.4014 53.5395 83.061 53.1921C82.7176 52.8467 82.5248 52.3794 82.5248 51.8923C82.5248 51.4052 82.7176 50.9379 83.061 50.5924L88.2788 45.3746C88.4358 45.1622 88.6366 44.986 88.8676 44.858C89.0986 44.7299 89.3544 44.653 89.6178 44.6324C89.8811 44.6119 90.1458 44.6481 90.3939 44.7387C90.642 44.8293 90.8677 44.9721 91.0558 45.1576C91.2439 45.343 91.39 45.5667 91.4841 45.8135C91.5782 46.0603 91.6183 46.3244 91.6014 46.588C91.5846 46.8516 91.5114 47.1085 91.3866 47.3413C91.2619 47.5741 91.0886 47.7774 90.8785 47.9374L85.6606 53.1553C85.493 53.3362 85.2908 53.4816 85.0659 53.5829C84.841 53.6843 84.5981 53.7395 84.3516 53.7453ZM63.4988 74.5981C63.2561 74.5995 63.0156 74.553 62.7909 74.4612C62.5663 74.3695 62.362 74.2343 62.1897 74.0634C62.0169 73.892 61.8797 73.6881 61.7861 73.4634C61.6925 73.2387 61.6443 72.9977 61.6443 72.7543C61.6443 72.5109 61.6925 72.2699 61.7861 72.0453C61.8797 71.8206 62.0169 71.6167 62.1897 71.4453L67.4075 66.2274C67.7547 65.8754 68.2275 65.6756 68.722 65.6722C69.2164 65.6687 69.692 65.8618 70.0441 66.209C70.3962 66.5562 70.5959 67.029 70.5993 67.5235C70.6028 68.0179 70.4097 68.4935 70.0625 68.8456L64.8447 74.0634C64.6681 74.2387 64.4577 74.3765 64.2264 74.4684C63.9951 74.5603 63.7476 74.6044 63.4988 74.5981ZM53.0631 85.0337C52.5768 85.0268 52.1129 84.828 51.7725 84.4806L46.5547 79.2812C46.3617 79.1159 46.2049 78.9125 46.0943 78.6838C45.9836 78.455 45.9214 78.2059 45.9116 77.9519C45.9018 77.698 45.9446 77.4448 46.0373 77.2082C46.13 76.9716 46.2706 76.7567 46.4502 76.5771C46.6299 76.3974 46.8448 76.2568 47.0814 76.1641C47.318 76.0714 47.5712 76.0286 47.8251 76.0384C48.0791 76.0482 48.3282 76.1104 48.557 76.2211C48.7857 76.3317 48.9891 76.4885 49.1544 76.6815L53.0631 80.5902L56.9903 76.6815C57.1556 76.4885 57.359 76.3317 57.5878 76.2211C57.8165 76.1104 58.0657 76.0482 58.3196 76.0384C58.5735 76.0286 58.8267 76.0714 59.0633 76.1641C59.2999 76.2568 59.5148 76.3974 59.6945 76.5771C59.8741 76.7567 60.0147 76.9716 60.1074 77.2082C60.2001 77.4448 60.2429 77.698 60.2331 77.9519C60.2233 78.2059 60.1611 78.455 60.0504 78.6838C59.9398 78.9125 59.783 79.1159 59.59 79.2812L54.3722 84.499C54.1999 84.6699 53.9956 84.8051 53.771 84.8968C53.5463 84.9886 53.3058 85.0351 53.0631 85.0337ZM73.9344 64.1624C73.6917 64.1638 73.4512 64.1173 73.2266 64.0256C73.0019 63.9338 72.7976 63.7986 72.6253 63.6278C72.2819 63.2823 72.0892 62.815 72.0892 62.3279C72.0892 61.8408 72.2819 61.3735 72.6253 61.0281L77.8431 55.8103C78.1959 55.5082 78.6496 55.3504 79.1136 55.3683C79.5776 55.3862 80.0178 55.5786 80.3461 55.9069C80.6745 56.2353 80.8669 56.6755 80.8848 57.1395C80.9027 57.6035 80.7449 58.0572 80.4428 58.4099L75.225 63.6278C74.8816 63.9684 74.4181 64.1604 73.9344 64.1624ZM94.7872 43.3096C94.5445 43.311 94.304 43.2645 94.0794 43.1728C93.8547 43.081 93.6504 42.9458 93.4781 42.7749C93.3053 42.6035 93.1682 42.3996 93.0746 42.1749C92.981 41.9503 92.9328 41.7093 92.9328 41.4659C92.9328 41.2225 92.981 40.9815 93.0746 40.7568C93.1682 40.5321 93.3053 40.3282 93.4781 40.1568L100.005 33.6484L84.3516 17.9949L77.8431 24.5218C77.496 24.869 77.0251 25.0641 76.5341 25.0641C76.0431 25.0641 75.5722 24.869 75.225 24.5218C74.8778 24.1746 74.6828 23.7038 74.6828 23.2128C74.6828 22.7218 74.8778 22.2509 75.225 21.9037L83.061 14.0862C83.4064 13.7428 83.8737 13.55 84.3608 13.55C84.8479 13.55 85.3152 13.7428 85.6606 14.0862L103.914 32.3393C104.257 32.6848 104.45 33.1521 104.45 33.6392C104.45 34.1263 104.257 34.5936 103.914 34.939L96.0963 42.7749C95.924 42.9458 95.7197 43.081 95.495 43.1728C95.2704 43.2645 95.0299 43.311 94.7872 43.3096Z" fill="#EF4444"/>
<path d="M32.6344 79.3919C32.2697 79.3903 31.9137 79.2807 31.6114 79.0769C31.309 78.873 31.0739 78.5841 30.9358 78.2466C30.7976 77.9092 30.7627 77.5383 30.8353 77.181C30.9079 76.8236 31.0848 76.4958 31.3437 76.239L38.7187 68.864C38.884 68.671 39.0874 68.5143 39.3162 68.4036C39.5449 68.2929 39.7941 68.2308 40.048 68.221C40.3019 68.2111 40.5551 68.2539 40.7917 68.3466C41.0283 68.4393 41.2432 68.5799 41.4229 68.7596C41.6026 68.9393 41.7432 69.1542 41.8358 69.3908C41.9285 69.6274 41.9713 69.8806 41.9615 70.1345C41.9517 70.3884 41.8895 70.6376 41.7789 70.8663C41.6682 71.0951 41.5114 71.2985 41.3184 71.4637L33.9434 78.8387C33.7727 79.0129 33.569 79.1515 33.3443 79.2465C33.1196 79.3414 32.8783 79.3909 32.6344 79.3919ZM40.4519 87.2094C40.2092 87.2108 39.9687 87.1643 39.744 87.0725C39.5194 86.9808 39.3151 86.8456 39.1428 86.6747C38.7994 86.3292 38.6066 85.8619 38.6066 85.3748C38.6066 84.8877 38.7994 84.4204 39.1428 84.075L46.5178 76.7C46.6873 76.5269 46.8892 76.3888 47.112 76.2937C47.3349 76.1987 47.5743 76.1484 47.8165 76.1458C48.0588 76.1433 48.2992 76.1884 48.524 76.2788C48.7488 76.3691 48.9536 76.5028 49.1267 76.6723C49.2998 76.8418 49.4379 77.0437 49.5329 77.2666C49.628 77.4894 49.6783 77.7288 49.6809 77.9711C49.6834 78.2133 49.6383 78.4537 49.5479 78.6785C49.4576 78.9033 49.3238 79.1081 49.1544 79.2812L41.7794 86.6562C41.6064 86.8327 41.3998 86.9725 41.1718 87.0676C40.9437 87.1626 40.6989 87.2108 40.4519 87.2094ZM63.4987 83.5034C62.0322 83.5021 60.6263 82.9185 59.59 81.8809L36.119 58.41C35.142 57.3615 34.6101 55.9746 34.6354 54.5416C34.6607 53.1087 35.2412 51.7415 36.2546 50.728C37.268 49.7146 38.6352 49.1341 40.0682 49.1088C41.5012 49.0835 42.888 49.6155 43.9365 50.5925L67.4075 74.0634C68.4433 75.1005 69.0251 76.5064 69.0251 77.9722C69.0251 79.438 68.4433 80.8438 67.4075 81.8809C66.3712 82.9185 64.9652 83.5021 63.4987 83.5034ZM40.0278 52.6575C39.7851 52.6561 39.5446 52.7026 39.32 52.7943C39.0953 52.8861 38.891 53.0213 38.7187 53.1922C38.5459 53.3636 38.4088 53.5675 38.3152 53.7922C38.2215 54.0169 38.1734 54.2578 38.1734 54.5012C38.1734 54.7446 38.2215 54.9856 38.3152 55.2103C38.4088 55.435 38.5459 55.6389 38.7187 55.8103L62.1897 79.2812C62.3611 79.4541 62.565 79.5912 62.7897 79.6848C63.0144 79.7784 63.2553 79.8266 63.4987 79.8266C63.7421 79.8266 63.9831 79.7784 64.2078 79.6848C64.4325 79.5912 64.6364 79.4541 64.8078 79.2812C65.1484 78.9378 65.3404 78.4743 65.3425 77.9906C65.3439 77.748 65.2974 77.5074 65.2056 77.2828C65.1139 77.0581 64.9787 76.8538 64.8078 76.6816L41.3369 53.1922C41.1646 53.0213 40.9603 52.8861 40.7356 52.7943C40.511 52.7026 40.2704 52.6561 40.0278 52.6575ZM73.9344 73.0678C72.4807 73.0568 71.0897 72.4739 70.0625 71.4453L46.5547 47.9375C45.5189 46.9004 44.937 45.4945 44.937 44.0287C44.937 42.563 45.5189 41.1571 46.5547 40.12C47.6098 39.1188 49.0089 38.5607 50.4634 38.5607C51.918 38.5607 53.317 39.1188 54.3722 40.12L77.8431 63.6278C78.6157 64.4013 79.1417 65.3865 79.3547 66.4588C79.5677 67.5311 79.4582 68.6425 79.04 69.6526C78.6217 70.6627 77.9135 71.5262 77.0048 72.1341C76.0961 72.7419 75.0276 73.0668 73.9344 73.0678ZM72.6253 68.8456C72.9707 69.189 73.438 69.3818 73.9251 69.3818C74.4122 69.3818 74.8795 69.189 75.225 68.8456C75.3978 68.6742 75.535 68.4703 75.6286 68.2456C75.7222 68.0209 75.7704 67.7799 75.7704 67.5366C75.7704 67.2932 75.7222 67.0522 75.6286 66.8275C75.535 66.6028 75.3978 66.3989 75.225 66.2275L51.7725 42.775C51.6011 42.6022 51.3972 42.465 51.1725 42.3714C50.9478 42.2778 50.7068 42.2296 50.4634 42.2296C50.22 42.2296 49.979 42.2778 49.7544 42.3714C49.5297 42.465 49.3258 42.6022 49.1544 42.775C48.8137 43.1184 48.6217 43.5819 48.6197 44.0656C48.6183 44.3083 48.6648 44.5488 48.7565 44.7734C48.8483 44.9981 48.9835 45.2024 49.1544 45.3747L72.6253 68.8456ZM84.3515 62.6875C82.8877 62.6911 81.4821 62.1143 80.4428 61.0834L56.9903 37.5572C56.4746 37.0433 56.0655 36.4327 55.7863 35.7604C55.5071 35.088 55.3634 34.3672 55.3634 33.6392C55.3634 32.9112 55.5071 32.1904 55.7863 31.5181C56.0655 30.8457 56.4746 30.2351 56.9903 29.7212C58.0454 28.7201 59.4445 28.1619 60.899 28.1619C62.3536 28.1619 63.7527 28.7201 64.8078 29.7212L88.2787 53.1922C89.0718 53.9637 89.6152 54.9554 89.8387 56.0389C90.0623 57.1225 89.9558 58.2483 89.5329 59.2707C89.1101 60.2931 88.3903 61.1652 87.4666 61.7743C86.543 62.3834 85.4579 62.7015 84.3515 62.6875ZM83.0609 58.4653C83.4064 58.8087 83.8737 59.0015 84.3608 59.0015C84.8479 59.0015 85.3152 58.8087 85.6606 58.4653C86.004 58.1199 86.1968 57.6525 86.1968 57.1655C86.1968 56.6784 86.004 56.2111 85.6606 55.8656L62.1897 32.3394C61.8442 31.996 61.3769 31.8032 60.8898 31.8032C60.4027 31.8032 59.9354 31.996 59.59 32.3394C59.2466 32.6848 59.0538 33.1521 59.0538 33.6392C59.0538 34.1263 59.2466 34.5936 59.59 34.9391L83.0609 58.41V58.4653ZM94.7872 52.215C93.3207 52.2137 91.9147 51.6301 90.8784 50.5925L67.4075 27.1216C66.864 26.6152 66.4282 26.0045 66.1258 25.326C65.8235 24.6475 65.661 23.9151 65.6479 23.1724C65.6348 22.4297 65.7714 21.692 66.0496 21.0033C66.3278 20.3145 66.7418 19.6889 67.2671 19.1636C67.7923 18.6384 68.418 18.2243 69.1067 17.9461C69.7954 17.668 70.5331 17.5313 71.2758 17.5444C72.0185 17.5575 72.751 17.7201 73.4295 18.0224C74.1079 18.3247 74.7186 18.7606 75.225 19.3041L98.6959 42.775C99.7317 43.8121 100.314 45.218 100.314 46.6837C100.314 48.1495 99.7317 49.5554 98.6959 50.5925C97.6596 51.6301 96.2537 52.2137 94.7872 52.215ZM71.3162 21.3691C70.9547 21.3777 70.6037 21.4925 70.307 21.6991C70.0102 21.9057 69.7807 22.195 69.6471 22.531C69.5134 22.867 69.4816 23.2349 69.5555 23.5889C69.6293 23.9429 69.8056 24.2673 70.0625 24.5219L93.4781 47.9375C93.8236 48.2809 94.2909 48.4736 94.778 48.4736C95.265 48.4736 95.7323 48.2809 96.0778 47.9375C96.4212 47.592 96.6139 47.1247 96.6139 46.6376C96.6139 46.1506 96.4212 45.6833 96.0778 45.3378L72.6253 21.9037C72.453 21.7329 72.2487 21.5977 72.0241 21.5059C71.7994 21.4142 71.5589 21.3677 71.3162 21.3691Z" fill="#EF4444"/>
</svg>
