<svg width="118" height="118" viewBox="0 0 118 118" fill="none" xmlns="http://www.w3.org/2000/svg">
<path d="M18.9132 1.0779C10.7997 5.13226 4.11497 19.5022 1.20636 39.0041C0.0327109 46.8562 -0.375515 63.3303 0.389908 71.6956C1.61459 85.0391 5.23759 98.4339 9.62602 105.67C10.7486 107.62 13.0449 110.494 14.6778 112.034C19.1173 116.294 20.0358 116.499 37.8957 116.499C49.7852 116.55 53 116.704 54.0206 117.269C55.6535 118.192 60.0419 118.192 61.6748 117.269C63.5629 116.191 96.1699 116.191 97.5987 117.269C98.8744 118.244 103.059 118.244 104.334 117.269C105.049 116.704 106.886 116.55 111.836 116.499C119.184 116.499 118.673 116.961 116.836 112.188C115.918 109.673 115.918 109.571 116.836 107.364C118.469 103.617 117.04 98.1259 113.826 95.7139C112.703 94.8927 111.376 94.6361 107.039 94.4308L101.579 94.1742L97.5987 90.3251C95.3024 88.1183 92.2407 85.8089 90.5058 84.9364L87.4441 83.3968L75.7076 83.2428C69.278 83.1402 63.2057 83.2428 62.2872 83.3968C60.0419 83.8074 57.4905 86.2195 54.4798 90.6844C53.1021 92.7372 51.7243 94.4308 51.4692 94.4308C51.214 94.4308 50.4996 93.507 49.9383 92.378L48.9178 90.3251H44.5804H40.243V98.4852C40.243 103.053 40.4981 107.312 40.8043 108.134L41.3146 109.571L39.9878 108.287C35.3442 103.925 30.8027 91.6082 28.6595 77.4949C27.4349 69.2835 27.4349 48.9604 28.7106 40.2872C30.9048 24.7882 35.2932 13.087 41.0084 7.08247C43.5088 4.51641 45.5499 3.59264 48.9178 3.59264H51.4692L49.1729 6.46661C43.7639 13.087 39.9368 24.2237 37.5895 39.7739C37.1813 42.7506 36.9261 48.9604 36.9772 57.2231C36.9772 69.1809 37.2833 73.4405 38.7631 81.9085L39.3245 85.2957L40.9063 84.9878C41.7738 84.8338 42.5392 84.5772 42.6923 84.4745C42.7944 84.3206 42.3861 80.7281 41.7228 76.3658C40.294 66.3069 40.1409 49.2683 41.4166 39.7226C44.7845 15.0372 54.6329 -0.307762 64.0731 4.51641C70.7068 7.95493 76.2179 19.3482 79.0754 35.6683C80.3512 42.8019 80.9125 61.688 80.147 69.7967C79.6878 75.0828 79.7898 75.4421 82.1882 75.4421C83.5149 75.4421 83.5149 75.3907 83.9742 70.4126C84.6375 62.3552 84.3824 46.1378 83.4128 39.2607C81.2186 23.4539 76.6261 11.1881 70.6048 4.87566C65.8081 -0.102478 66.6756 0.000167847 42.2841 0.000167847C21.7707 0.000167847 21.0563 0.0514832 18.9132 1.0779ZM24.2711 5.74812C18.2498 13.1897 13.9124 25.9686 11.8713 41.8268C10.7486 50.7566 10.7486 67.3847 11.8713 75.9039C13.8614 91.095 18.0967 103.258 23.7608 110.238C24.7304 111.469 25.4448 112.598 25.2917 112.752C24.6283 113.368 19.8827 111.726 18.2498 110.34C16.9741 109.211 16.7189 108.852 17.4333 108.801C18.0967 108.801 18.3008 108.39 18.3008 107.004V105.208H15.8515H13.4021L12.0243 102.386C10.6976 99.6656 10.6976 99.5629 11.6671 99.5629C12.4836 99.5629 12.6877 99.2037 12.6877 97.7667C12.6877 96.0731 12.5857 95.9705 10.9528 95.9705C9.26882 95.9705 9.16676 95.8678 8.1462 92.7886C6.81947 88.8882 6.81947 88.7855 8.09517 88.7855C8.91162 88.7855 9.11574 88.4263 9.11574 86.9893C9.11574 85.347 9.01368 85.193 7.58489 85.193C6.76844 85.193 6.05404 85.1417 6.05404 85.0391C6.05404 84.9878 5.69685 82.9862 5.28862 80.5742C4.88039 78.1621 4.5232 76.1605 4.5232 76.0579C4.5232 76.0066 5.54376 75.9553 6.81947 75.9553H9.11574V73.9024V71.8496H6.66638H4.166L3.8088 66.6662C3.65572 63.8435 3.60469 61.2775 3.75777 61.0208C3.96188 60.7642 4.72731 60.559 5.59479 60.559C6.92152 60.559 7.07461 60.405 7.07461 59.0193C7.07461 57.6337 6.92152 57.4797 5.59479 57.4797C4.72731 57.4797 3.96188 57.2744 3.75777 57.0178C3.60469 56.7612 3.65572 54.1952 3.8088 51.3725L4.166 46.1891H6.66638H9.11574V44.3928C9.11574 42.5966 9.11574 42.5966 6.76844 42.5966H4.47217L4.82936 40.1332C5.7989 33.1022 5.54376 33.6667 8.35031 33.3588C10.8507 33.1022 10.9017 33.1022 10.9017 31.306C10.9017 29.6124 10.7997 29.5098 9.01368 29.3558C6.81947 29.1505 6.76844 29.0992 7.89106 25.0448C8.75854 22.0682 8.75854 22.0682 10.6976 22.0682C12.6367 22.0682 12.6877 22.0169 12.6877 20.3233C12.6877 18.835 12.4836 18.5271 11.463 18.3731L10.1873 18.2191L11.463 15.4991C12.6367 13.0357 12.8918 12.8304 14.5247 12.8304C16.1576 12.8304 16.2597 12.7278 16.2597 11.0342C16.2597 9.95644 16.0045 9.23795 15.6473 9.23795C14.7288 9.23795 18.709 5.28623 20.5461 4.41377C21.4135 3.95188 22.9954 3.59264 24.067 3.59264H26.0061L24.2711 5.74812ZM37.3854 5.38887C36.0586 7.1851 36.0076 7.1851 31.9764 7.1851C28.4554 7.1851 27.9452 7.08247 28.4554 6.46661C29.7311 4.9783 33.3541 3.59264 36.0586 3.59264H38.7631L37.3854 5.38887ZM31.8233 14.4727L30.1394 18.2191L25.7509 18.3731C23.3526 18.4244 21.3625 18.4244 21.3625 18.2704C21.3625 18.0138 22.9954 14.4727 24.067 12.4199L24.9855 10.7776H29.2719H33.5583L31.8233 14.4727ZM27.9962 25.0448C27.5369 26.6871 26.8225 29.6124 26.4653 31.4599L25.7509 34.8985H21.2605C18.4539 34.8985 16.77 34.6932 16.77 34.3339C16.77 33.6154 17.7395 29.6124 18.9132 25.5067L19.8827 22.0682H24.4242H28.9147L27.9962 25.0448ZM24.7304 41.1596C24.5773 42.6479 24.2711 46.497 24.118 49.6276L23.7608 55.4269H19.2193H14.7288V53.4767C14.7288 51.0646 15.6984 39.9792 16.0045 39.1068C16.1576 38.6962 17.5864 38.4909 20.6481 38.4909H25.0876L24.7304 41.1596ZM23.9139 62.7658C23.9139 64.8699 24.067 68.6677 24.2201 71.2337L24.5773 75.9553H20.2399C16.77 75.9553 15.8004 75.8013 15.5453 75.1854C15.3922 74.7236 15.086 70.9258 14.933 66.7175L14.5758 59.0193H19.2193H23.9139V62.7658ZM25.4448 80.6768C25.4448 81.7032 27.0266 89.0421 27.7921 91.4542C28.0472 92.2753 27.588 92.378 23.5057 92.378H18.9642L18.3518 90.1712C17.3313 86.4247 16.2597 81.3953 16.2597 80.4202C16.2597 79.6504 16.821 79.5477 20.8522 79.5477C25.2917 79.5477 25.4448 79.5991 25.4448 80.6768ZM75.3504 90.4278L75.1973 94.1742L66.1653 94.3282C61.1645 94.3795 57.0823 94.3282 57.0823 94.1229C57.0823 93.5584 59.1744 90.1712 60.3481 88.8368C61.981 87.0406 62.9505 86.784 69.4821 86.784L75.5035 86.7327L75.3504 90.4278ZM88.5157 88.221C91.5774 89.658 95.8637 93.0452 95.8637 93.9689C95.8637 94.2255 92.0876 94.4308 87.4441 94.4308H79.0244V90.5817V86.7327H82.2392C84.6885 86.7327 86.1173 87.0919 88.5157 88.221ZM47.54 96.2271L48.4075 98.0233H61.93H75.4524V101.616V105.208H72.6459H69.8393V107.004V108.801H79.9939H90.1486L90.0975 107.004L90.0465 105.208H84.5355H79.0244V101.616V98.0233H94.7411C107.753 98.0233 110.611 98.1773 111.478 98.7931C112.397 99.5116 112.397 99.5116 111.274 99.5629C110.203 99.5629 110.101 99.7682 110.254 101.462C110.407 103.258 110.56 103.412 112.091 103.566C113.979 103.771 114.081 104.336 112.958 107.158C112.397 108.39 112.244 109.724 112.499 111.008L112.805 112.958L110.662 112.804C108.519 112.65 108.519 112.65 108.315 110.392C107.957 106.337 104.998 103.669 100.864 103.669C96.7312 103.669 93.8226 106.645 93.8226 110.854V112.906H79.8919H65.9612V110.186C65.9612 106.697 64.4303 104.13 61.4707 102.694C58.7152 101.308 56.8271 101.359 54.0206 102.745C51.0099 104.284 49.2239 107.518 49.6322 110.751C49.9383 112.906 49.8873 112.958 48.5095 112.804C47.3869 112.701 46.8766 112.085 45.754 109.827C44.4783 107.21 44.3762 106.491 44.3252 100.692C44.3252 94.4821 44.3252 94.4308 45.4989 94.4308C46.3663 94.4308 46.9277 94.944 47.54 96.2271ZM29.3739 96.8429C29.527 97.3561 30.4455 99.4603 31.364 101.462L33.048 105.208H28.8126H24.5263L22.7403 101.718C19.6276 95.7139 19.5765 95.9705 24.6793 95.9705C28.4044 95.9705 29.1188 96.1244 29.3739 96.8429ZM60.6032 106.543C63.818 109.263 62.032 114.446 57.8477 114.446C53.2552 114.446 51.7243 108.031 55.8066 105.824C57.4395 104.9 58.9193 105.106 60.6032 106.543ZM103.518 108.287C104.079 108.852 104.539 109.981 104.539 110.854C104.539 114.189 100.507 115.678 98.4662 113.112C97.0884 111.367 97.0884 109.93 98.5172 108.441C99.895 106.953 102.14 106.902 103.518 108.287ZM37.1302 110.854L38.7631 112.906H37.0792C34.4257 112.855 31.6702 112.085 29.7822 110.751C28.8126 110.135 27.9962 109.417 27.9962 109.16C27.9962 108.955 29.6801 108.801 31.7212 108.801H35.4973L37.1302 110.854Z" fill="#EF4444"/>
<path d="M57.5415 14.1134C53.9696 16.7821 50.6017 22.6327 47.9993 30.7927C43.3047 45.6245 42.6923 65.4344 46.4684 81.7545C47.489 86.2194 47.489 86.322 48.8667 85.9628C49.5811 85.8088 50.3465 85.5009 50.5507 85.2956C50.7548 85.0903 50.2955 82.0624 49.5301 78.5212C48.3054 72.568 48.2034 71.2337 48.1523 59.2759C48.1523 45.2652 48.8667 39.7739 51.7753 30.9467C53.9696 24.3263 57.5415 18.0651 59.6847 16.8847C63.1546 15.0372 69.8904 29.0478 72.1356 42.8531C73.6665 51.9883 73.6154 68.1031 72.0846 75.8012C71.7784 77.2895 71.8805 77.3922 73.6154 77.5975C75.7586 77.8541 75.6566 78.0594 76.473 71.3363C77.1874 65.1265 77.0853 51.4751 76.2179 45.1626C74.4319 31.6652 70.5537 21.3496 65.2468 15.7557C61.93 12.3685 60.3991 12.0092 57.5415 14.1134Z" fill="#EF4444"/>
</svg>
