<svg width="118" height="118" viewBox="0 0 118 118" fill="none" xmlns="http://www.w3.org/2000/svg">
<g clip-path="url(#clip0_24_75)">
<path d="M13.5751 0.648201C8.38372 2.37492 4.88672 6.36282 3.30046 12.283C1.78629 17.8743 3.40861 24.0823 7.55453 28.5224C9.57342 30.7425 9.68157 30.948 9.1408 31.6469C8.81634 32.0581 8.09531 33.4559 7.55453 34.8126C6.6893 36.9504 6.54509 37.7727 6.54509 41.2261C6.54509 44.9262 6.6172 45.2962 7.91505 48.2974L9.28501 51.422L7.77084 53.1487C5.60775 55.6154 4.74252 58 4.74252 61.7412C4.74252 65.6469 5.96827 68.8125 8.38372 71.0326C9.64552 72.2248 9.96999 72.8004 9.96999 73.8693C9.96999 77.2817 11.6284 80.8173 13.9717 82.544C18.406 85.7097 23.7777 84.3119 26.6258 79.2962C27.7073 77.405 27.8155 76.9116 27.8155 74.0749C27.8155 71.2381 27.7073 70.7448 26.5897 68.8125C25.4361 66.7158 25.4 66.6336 25.8326 64.5779C26.2653 62.6457 26.1571 60.3434 25.6163 57.8766C25.4361 56.9721 25.6163 56.7255 27.2387 55.7799C29.7623 54.341 31.8172 52.1209 33.115 49.5308C34.1245 47.5163 34.3048 47.3519 35.5305 47.3519C39.0635 47.3519 43.3176 45.1318 45.8052 42.0072C51.3932 34.9359 50.6361 24.1234 44.1468 18.1621C41.2627 15.5309 39.0275 14.6675 35.0258 14.6675C31.673 14.7086 31.2404 14.5031 31.2404 12.9819C31.2404 12.4886 30.6635 10.803 29.9786 9.19958C27.6352 3.85497 23.1648 0.524864 17.9734 0.237076C16.3151 0.154854 14.5485 0.319305 13.5751 0.648201ZM20.9296 5.04723C23.3451 6.03392 25.9769 8.82957 26.9502 11.3785C27.3468 12.3652 27.7794 14.5031 27.9236 16.1476C28.2481 19.9299 28.6086 20.2177 31.7451 19.2721C34.7734 18.3676 36.5399 18.3676 38.9554 19.4366C41.3708 20.4644 43.7502 22.9722 44.9399 25.7679C46.2738 28.8513 46.2017 33.127 44.7597 36.416C42.849 40.6917 39.6764 42.8706 34.8455 43.2406L31.7811 43.4462L30.8799 45.5018C28.9691 49.8597 27.0584 51.8742 23.6696 52.9842C20.497 54.0121 20.1726 54.6699 21.5425 57.6299C22.6962 60.1789 22.8043 62.1934 21.903 65.0713C21.146 67.3736 21.146 67.6203 21.6507 68.5658C21.9751 69.1003 22.3717 69.5525 22.5159 69.5525C23.0206 69.5525 24.3906 72.7182 24.3906 73.9104C24.3906 75.925 23.0206 78.5561 21.4704 79.4195C17.3605 81.804 13.1065 78.145 13.7554 72.8004C14.0438 70.457 13.7554 69.8814 11.7005 68.6892C9.0687 67.168 7.59059 62.769 8.52793 59.4389C9.17685 57.1777 10.1142 55.9855 12.2412 54.5054C14.6567 52.902 14.8009 51.9976 13.0344 49.7364C10.9434 47.1463 10.1502 44.8029 10.1502 41.185C10.1502 37.4849 10.9794 35.1826 13.2146 32.387C14.9451 30.2491 14.9811 29.4269 13.2867 28.2346C10.3305 26.179 8.67213 24.4112 7.69874 22.1911C3.22835 12.0774 11.7005 1.10044 20.9296 5.04723Z" fill="#EF4444"/>
<path d="M14.6207 11.2962C13.0704 12.4885 11.7726 14.6674 11.7726 16.1064C11.7726 17.2986 12.746 18.5731 13.6473 18.5731C14.3322 18.5731 15.3777 17.2986 15.3777 16.4353C15.3777 15.613 16.4232 14.6263 17.6129 14.2974C19.74 13.7219 19.055 10.3506 16.8198 10.3506C16.279 10.3506 15.3056 10.7618 14.6207 11.2962Z" fill="#EF4444"/>
<path d="M34.0163 25.4389C33.6919 25.8911 33.4034 26.5078 33.4034 26.8778C33.4034 27.7412 34.5931 28.8512 35.5305 28.8512C36.6481 28.8512 38.8112 31.3591 38.8112 32.6335C38.8112 33.7436 39.8206 35.0181 40.6858 35.0181C41.4429 35.0181 42.4163 33.7025 42.4163 32.6747C42.4163 31.4413 41.6592 29.1801 40.9022 28.0701C39.0635 25.3567 35.2421 23.9177 34.0163 25.4389Z" fill="#EF4444"/>
<path d="M21.903 31.3591C18.6584 32.428 16.3871 35.347 15.63 39.3349C15.2695 41.3083 15.3056 41.6372 15.9185 42.4184C16.279 42.8706 16.8558 43.2406 17.1803 43.2406C18.0094 43.2406 18.9828 41.925 18.9828 40.815C18.9828 38.3071 21.903 35.0181 24.1022 35.0181C25.0755 35.0181 26.1931 33.867 26.1931 32.8803C26.1931 31.9758 25.0034 30.9069 23.994 30.948C23.5253 30.948 22.588 31.1536 21.903 31.3591Z" fill="#EF4444"/>
<path d="M107.057 54.2998C103.488 55.6976 100.892 58.411 99.3056 62.44C98.6206 64.1257 98.4764 65.359 98.3682 70.5803C98.2601 75.3904 98.1159 76.9116 97.6472 77.4461C97.1786 78.0627 96.4575 78.1861 93.1768 78.1861H89.2833V72.3892C89.2833 65.5646 88.9228 64.3312 86.5794 62.7689C85.3537 61.9056 84.5966 61.7411 82.3253 61.7411C79.6936 61.7411 78.4678 62.2756 78.4678 63.4267C78.4678 63.6323 72.6635 63.7968 64.0472 63.7968C55.4309 63.7968 49.6266 63.6323 49.6266 63.4267C49.6266 62.2756 48.4009 61.7411 45.7691 61.7411C40.8661 61.7411 38.8112 64.0023 38.8112 69.3058V72.0192H35.8189C31.3485 72.0192 31.6009 71.2792 31.6009 84.4352C31.6009 97.4267 31.3485 96.6866 35.8189 96.6866H38.7391L38.8472 99.8523C39.0635 105.156 40.83 106.965 45.7691 106.965C48.4009 106.965 49.6266 106.43 49.6266 105.279C49.6266 105.074 55.3949 104.909 64.0112 104.909C78.1073 104.909 78.4318 104.909 78.6481 105.731C78.9365 106.8 80.0541 107.088 83.2627 106.924C85.2094 106.8 86.1468 106.513 86.976 105.855C88.9228 104.251 89.2833 102.812 89.2833 96.3577V90.602L94.4386 90.4376C99.0172 90.3142 99.7743 90.1909 101.577 89.2042C104.389 87.7242 106.264 85.6685 107.706 82.4207C108.931 79.7072 108.931 79.5839 109.039 73.4993C109.22 65.729 109.112 65.8524 113.51 65.8524C117.98 65.8524 118.124 65.6468 118.124 59.5622C118.124 53.4776 118.161 53.5187 112.861 53.5187C110.049 53.5598 108.391 53.7653 107.057 54.2998ZM114.447 59.5622L114.339 61.5356L111.815 61.7411C108.967 61.9878 107.381 62.8101 106.372 64.4957C105.831 65.4413 105.687 66.798 105.506 72.2248C105.254 79.625 104.785 81.3106 102.298 83.8596C100.279 85.9152 98.3322 86.4497 93.5734 86.3263L89.4635 86.203L89.3554 84.2296L89.2472 82.2973H93.4652C98.3322 82.2973 99.8464 81.6395 101.144 79.0083C101.793 77.6516 101.901 76.7883 101.901 71.937C101.901 65.3179 102.37 63.3445 104.569 60.7544C106.444 58.5755 108.499 57.7121 111.924 57.671L114.555 57.6299L114.447 59.5622ZM46.0215 84.3529V102.854H44.7957C42.3442 102.854 42.4163 103.47 42.4163 84.3529C42.4163 65.2357 42.3442 65.8524 44.7957 65.8524H46.0215V84.3529ZM85.0292 66.5513C85.6421 67.168 85.6781 68.278 85.6781 84.3941C85.6781 103.429 85.7502 102.854 83.2987 102.854H82.073V84.3529V65.8524H83.2266C83.8395 65.8524 84.6687 66.1402 85.0292 66.5513ZM78.2876 84.3529V100.592L63.9751 100.716L49.6266 100.798V84.3529V67.908L63.9751 67.9902L78.2876 68.1136V84.3529ZM38.8112 84.3941V92.6165L37.1167 92.4932L35.3863 92.3699L35.2781 84.2296L35.206 76.1305H37.0086H38.8112V84.3941Z" fill="#EF4444"/>
<path d="M56.3683 76.5416C51.934 78.1039 50.0232 84.5996 52.7271 88.9575C54.6739 92.0821 55.5752 92.3699 64.0473 92.3699C72.5194 92.3699 73.4206 92.0821 75.4035 88.9164C76.3408 87.3953 76.485 86.8197 76.485 84.4352C76.485 81.1462 75.5837 79.1317 73.3125 77.4461C71.8704 76.3361 71.7983 76.3361 64.6241 76.2538C60.6224 76.2127 56.9091 76.3361 56.3683 76.5416ZM71.0773 80.7351C72.1228 81.2695 73.0601 82.9963 73.0601 84.353C73.0601 85.7097 72.1228 87.4364 71.0773 87.9708C69.7794 88.6286 58.3151 88.6286 57.0172 87.9708C54.5297 86.6964 54.4576 82.3385 56.873 80.8173C58.0267 80.0773 69.7073 80.0362 71.0773 80.7351Z" fill="#EF4444"/>
<path d="M20.1365 87.2719C16.3511 89.4098 16.243 95.4122 19.9923 97.8378C21.831 98.989 23.4172 98.989 25.2558 97.7556C27.1305 96.4811 27.8155 95.0833 27.8155 92.411C27.7795 89.8209 26.6979 87.9708 24.679 87.0253C22.8404 86.203 21.9752 86.2441 20.1365 87.2719ZM23.8859 91.3832C24.4988 92.1643 24.4988 92.3288 23.994 93.3155C23.3451 94.6722 22.4078 94.9188 21.4704 93.9733C20.6413 93.1099 20.6052 92.2465 21.3983 91.2598C22.1554 90.2731 23.0207 90.3143 23.8859 91.3832Z" fill="#EF4444"/>
<path d="M6.72534 91.5065C4.5262 92.7399 3.04808 95.33 2.83178 98.1667C2.47126 103.182 6.50903 107.499 10.9073 106.8C13.1065 106.471 15.0893 104.827 16.2429 102.484C17.4687 99.8523 17.4687 97.6322 16.2429 95.0422C14.2601 90.8898 10.2944 89.4098 6.72534 91.5065ZM12.3854 96.07C13.5391 97.3856 13.6472 97.7145 13.467 99.0712C13.2146 100.88 11.4841 102.854 10.1502 102.854C8.13135 102.854 6.36482 100.921 6.36482 98.7423C6.36482 97.55 7.41032 95.6177 8.3116 95.0833C9.82577 94.261 11.0515 94.5488 12.3854 96.07Z" fill="#EF4444"/>
</g>
<defs>
<clipPath id="clip0_24_75">
<rect width="118" height="118" fill="white"/>
</clipPath>
</defs>
</svg>
