<svg width="118" height="118" viewBox="0 0 118 118" fill="none" xmlns="http://www.w3.org/2000/svg">
<path d="M115.578 53.2051H105.482C104.993 53.2051 104.524 53.3993 104.178 53.7451C103.832 54.0909 103.638 54.5598 103.638 55.0488V61.5259H100.749V54.7336C100.749 54.2446 100.554 53.7756 100.209 53.4298C99.8629 53.0841 99.394 52.8898 98.905 52.8898H90.0402V43.9955C90.04 43.7291 89.982 43.4658 89.8703 43.2239C89.7586 42.982 89.5958 42.7672 89.3931 42.5943L80.4195 34.9261C80.0871 34.639 79.6623 34.4812 79.2229 34.4818H71.7576V31.4433H79.2746C79.7636 31.4433 80.2325 31.249 80.5783 30.9033C80.9241 30.5575 81.1183 30.0885 81.1183 29.5996V19.5032C81.1183 19.0142 80.9241 18.5452 80.5783 18.1994C80.2325 17.8537 79.7636 17.6594 79.2746 17.6594H39.3445C38.8555 17.6594 38.3865 17.8537 38.0407 18.1994C37.695 18.5452 37.5007 19.0142 37.5007 19.5032V29.5996C37.5007 30.0885 37.695 30.5575 38.0407 30.9033C38.3865 31.249 38.8555 31.4433 39.3445 31.4433H46.8633V34.4781H38.4152C37.9754 34.4776 37.55 34.6353 37.2168 34.9225L28.7042 42.196H19.7159C19.2269 42.196 18.7579 42.3903 18.4122 42.7361C18.0664 43.0818 17.8722 43.5508 17.8722 44.0398V52.1947H14.7839V44.6482C14.7839 44.1592 14.5896 43.6903 14.2439 43.3445C13.8981 42.9987 13.4291 42.8045 12.9401 42.8045H2.84375C2.35476 42.8045 1.88579 42.9987 1.54002 43.3445C1.19425 43.6903 1 44.1592 1 44.6482V84.5765C1 85.0655 1.19425 85.5344 1.54002 85.8802C1.88579 86.226 2.35476 86.4202 2.84375 86.4202H12.9401C13.4291 86.4202 13.8981 86.226 14.2439 85.8802C14.5896 85.5344 14.7839 85.0655 14.7839 84.5765V77.0927H17.8722V85.231C17.8722 85.72 18.0664 86.189 18.4122 86.5347C18.7579 86.8805 19.2269 87.0748 19.7159 87.0748H25.4315C26.2851 91.6273 28.4992 95.8139 31.7816 99.0819C35.0641 102.35 39.2604 104.546 43.8167 105.379C48.3729 106.213 53.0748 105.645 57.3016 103.75C61.5284 101.856 65.0812 98.7243 67.4912 94.7687L98.9068 94.7355C99.3958 94.7355 99.8648 94.5413 100.211 94.1955C100.556 93.8498 100.751 93.3808 100.751 92.8918V86.4202H103.64V92.8992C103.64 93.3882 103.834 93.8571 104.18 94.2029C104.526 94.5487 104.994 94.7429 105.483 94.7429H115.58C116.069 94.7429 116.538 94.5487 116.884 94.2029C117.229 93.8571 117.424 93.3882 117.424 92.8992V55.0488C117.424 54.8065 117.376 54.5666 117.283 54.3428C117.19 54.119 117.054 53.9157 116.883 53.7445C116.712 53.5732 116.508 53.4374 116.284 53.3449C116.06 53.2523 115.82 53.2048 115.578 53.2051ZM41.1882 21.3469H77.4308V27.7558H41.1882V21.3469ZM50.5508 34.4062V31.517H68.0664V34.4062H50.5508ZM11.0964 82.7327H4.6875V46.492H11.0964V82.7327ZM17.673 73.4052H14.7839V55.8896H17.673V73.4052ZM39.0956 38.1656H78.5518L86.3619 44.8418V54.7299C86.3619 55.2189 86.5562 55.6878 86.902 56.0336C87.2477 56.3794 87.7167 56.5736 88.2057 56.5736H97.0704V82.7327H70.9003C70.894 78.1423 69.5081 73.6596 66.9226 69.8665C64.3371 66.0734 60.6713 63.1449 56.4008 61.461C52.1303 59.7772 47.4523 59.4157 42.9738 60.4234C38.4953 61.4312 34.423 63.7617 31.2854 67.1125V44.8437L39.0956 38.1656ZM21.5597 83.3873V45.8872H27.5979V72.3063C25.9084 75.5518 25.0261 79.1568 25.0259 82.8157C25.0259 83.0093 25.0517 83.1974 25.0554 83.391L21.5597 83.3873ZM44.2027 101.686V94.5327C44.2028 94.1791 44.1012 93.8329 43.9099 93.5354C43.7187 93.2379 43.4459 93.0017 43.1242 92.8549C41.2301 91.961 39.632 90.5428 38.5193 88.7683C37.4066 86.9939 36.826 84.9377 36.8462 82.8434C36.8626 80.1771 37.8228 77.6029 39.5565 75.5771V82.1649C39.5566 82.4924 39.6439 82.814 39.8095 83.0965C39.9751 83.3791 40.213 83.6125 40.4987 83.7726L47.0642 87.4601C47.3399 87.6148 47.6507 87.6961 47.9668 87.6961C48.2829 87.6961 48.5936 87.6148 48.8693 87.4601L55.4349 83.7726C55.7202 83.6122 55.9577 83.3788 56.123 83.0962C56.2882 82.8137 56.3753 82.4922 56.3752 82.1649V75.5937C57.4929 76.8854 58.2975 78.4174 58.7265 80.0708C59.1555 81.7241 59.1972 83.4541 58.8484 85.1262C58.4997 86.7983 57.7698 88.3674 56.7157 89.7114C55.6615 91.0554 54.3115 92.1381 52.7707 92.8752C52.4579 93.0254 52.1939 93.2608 52.009 93.5544C51.8241 93.8479 51.7257 94.1877 51.7253 94.5346V101.688C49.2444 102.187 46.6891 102.187 44.2083 101.688L44.2027 101.686ZM55.4072 100.56V95.639C57.6404 94.3389 59.4944 92.4769 60.7848 90.2381C62.0752 87.9993 62.7571 85.4617 62.7627 82.8777C62.7683 80.2936 62.0974 77.7531 60.8167 75.5087C59.5359 73.2644 57.6901 71.3944 55.4625 70.0846C55.1826 69.9195 54.8639 69.8313 54.5389 69.829C54.2138 69.8268 53.894 69.9104 53.6117 70.0716C53.3295 70.2328 53.0948 70.4657 52.9316 70.7467C52.7683 71.0278 52.6823 71.347 52.6822 71.6721V81.0863L47.9603 83.7357L43.244 81.0844V71.6721C43.2443 71.3483 43.1594 71.0301 42.9977 70.7496C42.836 70.469 42.6032 70.236 42.3229 70.074C42.0426 69.912 41.7245 69.8266 41.4007 69.8265C41.0769 69.8265 40.7588 69.9117 40.4784 70.0736C38.2601 71.3892 36.4203 73.2569 35.1382 75.4947C33.8561 77.7326 33.1754 80.2643 33.1624 82.8434C33.1478 85.4389 33.8209 87.992 35.113 90.243C36.4052 92.4941 38.2703 94.3628 40.5189 95.6593V100.56C36.4197 98.8402 33.0421 95.7545 30.9599 91.8269C28.8777 87.8993 28.2193 83.372 29.0964 79.014C29.9735 74.6561 32.3322 70.736 35.7717 67.9198C39.2112 65.1036 43.5195 63.5648 47.9649 63.5648C52.4103 63.5648 56.7186 65.1036 60.1582 67.9198C63.5977 70.736 65.9563 74.6561 66.8335 79.014C67.7106 83.372 67.0521 87.8993 64.9699 91.8269C62.8877 95.7545 59.5102 98.8402 55.4109 100.56H55.4072ZM69.3257 91.0812C69.9097 89.5749 70.3312 88.0105 70.5831 86.4147H97.0612V91.0517L69.3257 91.0812ZM100.749 82.7272V65.2116H103.638V82.7272H100.749ZM113.734 91.0499H107.325V56.8926H113.734V91.0499ZM72.5449 59.4886C74.241 59.4886 75.899 58.9856 77.3092 58.0433C78.7195 57.1009 79.8186 55.7615 80.4676 54.1945C81.1166 52.6275 81.2863 50.9032 80.9553 49.2397C80.6242 47.5762 79.8073 46.0482 78.6079 44.849C77.4084 43.6498 75.8803 42.8332 74.2167 42.5026C72.5531 42.1719 70.8289 42.342 69.262 42.9913C67.6951 43.6406 66.3559 44.74 65.4139 46.1505C64.4719 47.5609 63.9692 49.219 63.9696 50.9151C63.972 53.1885 64.8763 55.3681 66.484 56.9754C68.0917 58.5828 70.2715 59.4866 72.5449 59.4886ZM72.5449 46.0292C73.5116 46.0292 74.4566 46.3159 75.2604 46.8529C76.0642 47.39 76.6907 48.1534 77.0606 49.0465C77.4305 49.9396 77.5273 50.9224 77.3387 51.8705C77.1501 52.8187 76.6846 53.6896 76.0011 54.3732C75.3175 55.0567 74.4466 55.5223 73.4984 55.7108C72.5503 55.8994 71.5675 55.8027 70.6744 55.4327C69.7813 55.0628 69.0179 54.4363 68.4808 53.6325C67.9438 52.8287 67.6571 51.8837 67.6571 50.917C67.6576 49.6206 68.1726 48.3775 69.0891 47.4607C70.0056 46.5439 71.2485 46.0302 72.5449 46.0292Z" fill="#EF4444"/>
</svg>
