<svg width="118" height="118" viewBox="0 0 118 118" fill="none" xmlns="http://www.w3.org/2000/svg">
<path d="M4.04772 3.87173C3.34377 4.57568 3.34377 5.03325 3.34377 26.6094V48.6431L5.73721 51.1069L8.09545 53.5708L8.20104 72.5071C8.27144 88.2756 8.37703 91.5138 8.7994 91.8658C9.04578 92.0769 10.5945 92.2881 12.1784 92.3233L15.0646 92.3937L15.8741 95.6671C18.1972 105.17 24.4975 111.788 33.9657 114.779L36.6055 115.624H60.8919H85.1782L87.6421 114.815C96.6878 111.858 102.495 106.156 105.452 97.3214C106.262 94.8928 106.297 94.5056 106.473 77.2587L106.649 59.6599L110.802 59.484C114.427 59.3432 115.061 59.2024 115.483 58.6392C115.871 58.076 115.976 55.6474 115.976 45.3345C115.976 33.1209 115.941 32.6986 115.272 32.0298C114.568 31.3259 114.216 31.2907 103.974 31.3963C95.0688 31.5019 93.3793 31.5723 93.0977 32.0298C92.8865 32.3466 92.7457 37.943 92.7457 45.4401C92.7457 57.3721 92.7809 58.3576 93.3793 58.8856C93.872 59.308 94.8928 59.484 97.8494 59.5543L101.721 59.6599V76.7308C101.721 92.4993 101.686 93.9424 101.052 95.7375C98.4829 103.305 93.1329 108.444 85.8822 110.38C83.5943 111.013 81.7641 111.048 60.7159 111.048C40.5125 111.048 37.767 110.978 35.8664 110.45C29.566 108.69 24.7791 104.818 21.9985 99.1517C20.9074 96.899 19.7811 92.9921 20.0978 92.4993C20.309 92.1825 36.9223 92.1121 38.0486 92.4289C38.6118 92.5697 38.8934 93.0977 39.2101 94.4704C39.8437 97.3214 42.4483 101.052 45.2641 103.199C46.5664 104.15 48.7839 105.241 50.8254 105.91C52.5852 106.473 61.9478 106.402 63.9189 105.804C69.3041 104.15 73.1406 100.56 75.1117 95.2799C75.8509 93.2737 75.8509 93.0625 75.8509 62.7221C75.8509 39.4213 75.9564 32.065 76.2732 31.7482C76.5548 31.4667 77.9627 31.3259 80.2506 31.3259C82.8904 31.3259 83.9815 31.1851 84.5799 30.7627L85.3542 30.2347V17.2468V4.2589L84.5799 3.73093C83.9111 3.23817 82.2568 3.16778 73.5278 3.16778C64.0597 3.16778 63.2501 3.20297 62.7221 3.80133C62.1942 4.39969 62.1238 5.8428 62.1238 17.3172C62.1238 28.8268 62.1942 30.2347 62.687 30.6571C63.0741 30.9739 64.6228 31.2203 67.1922 31.3259L71.0992 31.5019V62.2998C71.0992 93.0273 71.0992 93.0977 70.36 94.7168C69.2689 97.075 67.2274 99.1517 64.7988 100.419C62.687 101.51 62.5814 101.51 57.5481 101.545C51.3885 101.545 49.875 101.088 47.0592 98.4125C45.1585 96.6174 44.3138 95.3855 43.821 93.5904C43.4691 92.3937 43.821 92.2177 46.7776 92.2177C50.4382 92.2177 50.1566 93.8368 50.1566 72.2959V53.6412L51.9517 51.9165C55.401 48.5023 55.1195 50.9309 55.0139 26.2926C54.9083 5.56121 54.8731 4.61088 54.2395 3.90693C53.5708 3.16778 53.5356 3.16778 29.1436 3.16778C5.20924 3.16778 4.75167 3.16778 4.04772 3.87173ZM50.0862 27.5245L50.1566 46.9536L47.9743 49.1711L45.7569 51.4237L45.5809 69.4449L45.4049 87.4661L29.1436 87.5716L12.8823 87.642L12.7767 69.5153L12.6711 51.4237L10.4537 49.1711L8.23624 46.9536V27.6653C8.27144 17.0708 8.30663 8.30663 8.41223 8.16584C8.48262 8.02505 17.8804 7.95465 29.2844 7.98985L49.9806 8.06024L50.0862 27.5245ZM70.9584 8.09544C71.0992 8.09544 71.24 9.36256 71.3456 10.8761C71.5215 14.0086 71.9439 14.783 73.4574 14.783C75.5341 14.783 75.8509 14.3254 75.8509 11.2632C75.8509 9.71453 76.0268 8.37702 76.238 8.27143C76.414 8.13064 77.5051 8.02505 78.5963 7.98985L80.6025 7.91946V17.2468V26.5742L78.5259 26.6798C77.0828 26.7502 76.3436 26.6446 76.1676 26.3278C75.9916 26.0814 75.8509 24.6735 75.8509 23.1952C75.8509 21.6113 75.6749 20.3794 75.4285 20.133C74.8301 19.5347 72.5071 19.6051 71.9791 20.2386C71.7327 20.5554 71.416 22.0689 71.3104 23.688L71.0992 26.5742H68.9873H66.8755L66.7699 17.5988C66.7347 12.6711 66.7347 8.48261 66.8403 8.27143C66.9459 7.98985 68.6001 7.88425 70.9584 8.09544ZM101.897 38.9286C102.108 42.2019 102.531 42.9411 104.22 42.9411C106.086 42.9411 106.473 42.2371 106.473 38.8582V35.8664L108.866 35.9719L111.224 36.0775L111.33 45.2993L111.4 54.5563L110.591 54.7323C110.133 54.8731 109.077 54.9083 108.197 54.8379L106.649 54.7323L106.543 51.9165C106.438 48.7135 105.945 47.8687 104.185 47.8687C102.531 47.8687 102.108 48.6431 101.897 51.8813L101.721 54.7323H99.6092H97.4974L97.3918 45.2993L97.3214 35.8664L99.5037 35.9719L101.721 36.0775L101.897 38.9286Z" fill="#EF4444"/>
<path d="M13.4455 13.3047C12.9175 13.903 12.8471 15.2405 12.8471 25.4478C12.8471 36.4999 12.8823 36.9926 13.5511 37.6614C14.2198 38.3302 14.7126 38.3654 29.1436 38.3654H44.0674L44.8066 37.5558C45.5809 36.7463 45.5809 36.5703 45.5809 25.4126C45.5809 14.5366 45.5457 14.0438 44.877 13.375C44.2082 12.7063 43.7154 12.6711 29.1084 12.6711C14.9238 12.6711 13.9734 12.7063 13.4455 13.3047ZM40.9348 25.4126L40.8292 33.6137L29.1436 33.7193L17.4228 33.7897V25.5182V17.2468H29.214H41.0052L40.9348 25.4126Z" fill="#EF4444"/>
<path d="M18.3028 43.7858C17.458 44.6658 17.4228 44.7714 17.4228 50.051C17.4228 54.3803 17.5284 55.6122 17.986 56.2458C18.5139 57.0201 18.5843 57.0201 29.038 57.0201C40.4069 57.0201 40.3717 57.0201 40.8644 55.1195C40.97 54.6619 41.0052 52.0573 40.9348 49.3471C40.8644 45.1233 40.7236 44.2786 40.1957 43.7506C39.6325 43.1875 38.6118 43.1171 29.39 43.0115L19.1827 42.9059L18.3028 43.7858ZM26.9262 50.1566V52.4445H24.4623H21.9985V50.1566V47.8688H24.4623H26.9262V50.1566ZM36.0775 50.1566V52.4445H33.7897H31.5019V50.1566V47.8688H33.7897H36.0775V50.1566Z" fill="#EF4444"/>
</svg>
