<svg width="42" height="42" viewBox="0 0 42 42" fill="none" xmlns="http://www.w3.org/2000/svg">
<path d="M37.5755 5.60772C36.8433 5.00052 35.8369 4.84427 34.9551 5.20082L5.09342 17.2565C3.77984 17.7972 3.15332 19.3003 3.69398 20.6138C3.97363 21.2931 4.53027 21.8204 5.22363 22.0628L11.6657 24.3024L15.1569 35.8454C15.1639 35.8689 15.1855 35.8832 15.1945 35.9058C15.2306 35.9978 15.2834 36.0826 15.3501 36.1556C15.3749 36.185 15.402 36.2126 15.4308 36.238C15.5178 36.3102 15.6188 36.3636 15.7275 36.3948C15.7441 36.3997 15.7551 36.4144 15.772 36.4183L15.7818 36.4179L15.7867 36.4199C15.8423 36.4323 15.8991 36.4383 15.9559 36.4378C16.0303 36.4352 16.1041 36.4223 16.1749 36.3997C16.1886 36.3959 16.2024 36.3969 16.2159 36.3924C16.3368 36.3498 16.4461 36.2797 16.5351 36.1876C16.5454 36.1772 16.5612 36.1753 16.5712 36.1644L21.594 30.6224L28.9214 36.2962C29.3667 36.6443 29.9156 36.8334 30.4807 36.8333C31.703 36.8331 32.7581 35.9769 33.01 34.7809L38.4479 8.08494C38.6363 7.16147 38.3009 6.20933 37.5755 5.60772ZM16.9798 26.4915L15.8011 32.2195L13.343 24.0898L25.5345 17.7414L17.206 26.07C17.0909 26.1852 17.0123 26.3318 16.9798 26.4915ZM31.3776 34.4456C31.3137 34.7524 31.0948 35.004 30.7998 35.1097C30.5115 35.2206 30.186 35.1711 29.9437 34.9795L22.0042 28.832C21.6605 28.5659 21.1699 28.6091 20.8779 28.9313L17.3852 32.7849L18.5618 27.0726L30.5426 15.0901C30.8683 14.7651 30.8688 14.2378 30.5438 13.9123C30.2867 13.6546 29.8921 13.5938 29.5693 13.762L12.2971 22.7565L5.76887 20.4873C5.41304 20.3702 5.17104 20.0399 5.16666 19.6653C5.14947 19.2881 5.37276 18.9414 5.7233 18.8011L35.5801 6.74704C35.892 6.6147 36.2519 6.67014 36.5094 6.89027C36.7658 7.09718 36.8836 7.43094 36.8138 7.7529L31.3776 34.4456Z" fill="#171717"/>
</svg>
